Coordinates
version=1
nRows=15
nColumns=63
inDegrees=yes

Units are S.I. units (second, meters, Newtons, ...)
If the header above contains a line with 'inDegrees', this indicates whether rotational values are in degrees (yes) or radians (no).

endheader
time	pelvis_tilt	pelvis_list	pelvis_rotation	pelvis_tx	pelvis_ty	pelvis_tz	hip_flexion_r	hip_adduction_r	hip_rotation_r	knee_angle_r	knee_angle_r_beta	ankle_angle_r	subtalar_angle_r	mtp_angle_r	hip_flexion_l	hip_adduction_l	hip_rotation_l	knee_angle_l	knee_angle_l_beta	ankle_angle_l	subtalar_angle_l	mtp_angle_l	L5_S1_Flex_Ext	L5_S1_Lat_Bending	L5_S1_axial_rotation	L4_L5_Flex_Ext	L4_L5_Lat_Bending	L4_L5_axial_rotation	L3_L4_Flex_Ext	L3_L4_Lat_Bending	L3_L4_axial_rotation	L2_L3_Flex_Ext	L2_L3_Lat_Bending	L2_L3_axial_rotation	L1_L2_Flex_Ext	L1_L2_Lat_Bending	L1_L2_axial_rotation	L1_T12_Flex_Ext	L1_T12_Lat_Bending	L1_T12_axial_rotation	Abs_r3	Abs_r2	Abs_r1	Abs_t1	Abs_t2	neck_flexion	neck_bending	neck_rotation	arm_flex_r	arm_add_r	arm_rot_r	elbow_flex_r	pro_sup_r	wrist_flex_r	wrist_dev_r	arm_flex_l	arm_add_l	arm_rot_l	elbow_flex_l	pro_sup_l	wrist_flex_l	wrist_dev_l
9.525424	1.543610	-10.680527	88.008875	0.165267	0.974125	0.289249	-7.579070	1.840521	-18.236458	8.899362	0.155323	32.615502	8.627049	0.000000	-9.816154	-3.035812	0.132399	0.498490	0.008700	32.880815	2.527795	0.000000	0.127104	0.532866	0.773723	0.236046	0.708712	0.822081	0.208820	1.295611	0.822081	0.145268	1.295611	0.677008	0.118029	1.086621	0.628650	0.072627	0.825410	0.580293	0.907894	6.027891	4.303218	0.000000	0.000000	15.794076	13.938158	19.865521	2.149316	-17.627932	77.357880	21.866146	64.420575	-16.801481	-9.181197	6.094524	-4.708947	177.048367	-0.346574	15.128630	-1.731629	-1.593084
9.542373	1.586940	-10.684349	88.180166	0.165230	0.974085	0.289128	-7.638977	1.893036	-18.884702	8.818530	0.153912	32.748976	9.335865	0.000000	-9.787058	-3.117949	0.280195	0.502936	0.008778	33.004050	2.588630	0.000000	0.118668	0.529959	0.711897	0.220378	0.704846	0.756391	0.194960	1.288543	0.756391	0.135626	1.288543	0.622910	0.110195	1.080693	0.578416	0.067807	0.820907	0.533923	0.847633	5.995005	3.959358	0.000000	0.000000	15.575674	14.180697	20.124077	2.052934	-17.663356	76.704771	21.939962	62.623121	-15.888104	-9.397477	5.943680	-4.751171	176.827351	-0.371646	15.303414	-1.473142	-1.668555
9.559322	1.616579	-10.681659	88.322348	0.165200	0.974052	0.289094	-7.711669	1.916159	-19.683948	8.762980	0.152943	32.812331	10.126494	0.000000	-9.767561	-3.179812	0.467174	0.506624	0.008842	33.100336	2.538947	0.000000	0.108835	0.524230	0.663928	0.202118	0.697226	0.705424	0.178805	1.274612	0.705424	0.124388	1.274612	0.580937	0.101064	1.069009	0.539442	0.062188	0.812032	0.497946	0.777399	5.930193	3.692569	0.000000	0.000000	15.408297	14.395582	20.229314	1.960262	-17.688019	76.142603	21.992828	60.701251	-14.940000	-9.612054	5.840313	-4.920411	174.782059	0.013929	17.429403	-1.653657	-1.469080
9.576271	1.617853	-10.681400	88.406767	0.165215	0.974017	0.289137	-7.791885	1.893429	-20.617032	8.720308	0.152198	32.789283	11.015740	0.000000	-9.751854	-3.201619	0.666179	0.507349	0.008855	33.163303	2.371078	0.000000	0.099367	0.514131	0.632762	0.184534	0.683794	0.672310	0.163250	1.250057	0.672310	0.113567	1.250057	0.553667	0.092272	1.048415	0.514120	0.056778	0.796388	0.474572	0.709768	5.815949	3.519235	0.000000	0.000000	15.272618	14.589797	20.210859	1.894541	-17.693363	75.741574	22.003547	58.743518	-13.947697	-9.812829	5.766282	-5.256368	170.579634	0.874812	21.642250	-2.434674	-0.994868
9.593220	1.626682	-10.694210	88.458168	0.165214	0.974014	0.289239	-7.854543	1.870033	-21.514218	8.714212	0.152092	32.657823	11.780422	0.000000	-9.726947	-3.222387	0.965818	0.507908	0.008865	33.162221	2.002440	0.000000	0.090798	0.504425	0.613482	0.168620	0.670885	0.651825	0.149171	1.226458	0.651825	0.103772	1.226458	0.536797	0.084315	1.028623	0.498454	0.051882	0.781354	0.460112	0.648558	5.706154	3.412003	0.000000	0.000000	15.232304	14.658499	19.942840	1.823018	-17.706268	75.337525	22.014889	57.051035	-13.153542	-9.948683	5.662607	-5.266296	170.715267	0.877919	22.365821	-2.837228	-0.747085
9.610169	1.625466	-10.709487	88.474642	0.165238	0.974049	0.289405	-7.911124	1.825346	-22.433444	8.727574	0.152325	32.467850	12.582246	0.000000	-9.703541	-3.224637	1.510562	0.504685	0.008808	33.070819	1.252587	0.000000	0.082198	0.492316	0.604598	0.152649	0.654780	0.642386	0.135042	1.197016	0.642386	0.093944	1.197016	0.529023	0.076329	1.003930	0.491236	0.046968	0.762597	0.453449	0.587129	5.569173	3.362594	0.000000	0.000000	15.245320	14.625964	19.454458	1.835779	-17.691594	75.388239	21.949947	55.272047	-12.464955	-10.118066	5.568707	-5.274888	171.029879	0.877566	23.089355	-3.499042	-0.397304
9.627119	1.609082	-10.732900	88.451724	0.165301	0.974126	0.289637	-7.949399	1.761139	-23.295673	8.745177	0.152632	32.233408	13.349292	0.000000	-9.672246	-3.204575	1.931242	0.499337	0.008715	32.963444	0.604313	0.000000	0.073778	0.477590	0.609483	0.137013	0.635194	0.647576	0.121210	1.161211	0.647576	0.084321	1.161211	0.533298	0.068510	0.973901	0.495205	0.042157	0.739786	0.457112	0.526989	5.402589	3.389762	0.000000	0.000000	15.313980	14.492201	18.805758	1.866814	-17.668184	75.487908	21.884173	53.955696	-11.954978	-10.162730	5.489213	-5.288000	171.442695	0.871988	23.821706	-4.443386	0.007056
9.644068	1.602914	-10.756153	88.429773	0.165376	0.974246	0.289880	-7.992081	1.720173	-23.989282	8.731943	0.152401	31.966306	13.980162	0.000000	-9.641253	-3.196278	2.373272	0.493467	0.008613	32.836468	-0.050136	0.000000	0.066701	0.462880	0.619271	0.123871	0.615631	0.657976	0.109583	1.125448	0.657976	0.076233	1.125448	0.541862	0.061939	0.943906	0.503158	0.038113	0.717002	0.464453	0.476440	5.236197	3.444200	0.000000	0.000000	15.382458	14.265535	17.977583	1.954961	-17.624799	76.020247	21.768729	52.785506	-11.813539	-10.247847	5.412480	-5.300569	171.848810	0.869548	24.635602	-5.638527	0.490832
9.661017	1.590768	-10.780202	88.379362	0.165479	0.974403	0.290153	-8.025517	1.677523	-24.527972	8.702272	0.151883	31.694586	14.517680	0.000000	-9.609843	-3.176671	2.675029	0.486677	0.008494	32.715788	-0.541143	0.000000	0.060316	0.447241	0.641332	0.112013	0.594831	0.681415	0.099093	1.087422	0.681415	0.068935	1.087422	0.561166	0.056009	0.912014	0.521082	0.034464	0.692776	0.480999	0.430830	5.059280	3.566897	0.000000	0.000000	15.473780	13.958632	17.036970	2.022924	-17.574224	76.445288	21.674313	52.542238	-11.954793	-10.160466	5.354093	-5.310643	172.434286	0.863576	25.349094	-7.016866	1.037355
9.677966	1.593807	-10.792128	88.313684	0.165594	0.974585	0.290391	-8.075754	1.660840	-24.865789	8.637496	0.150753	31.424995	14.904323	0.000000	-9.601447	-3.168887	2.866526	0.466271	0.008138	32.609027	-0.868639	0.000000	0.054495	0.434170	0.670319	0.101203	0.577447	0.712214	0.089530	1.055642	0.712214	0.062283	1.055642	0.586529	0.050604	0.885360	0.544635	0.031139	0.672530	0.502740	0.389255	4.911423	3.728115	0.000000	0.000000	15.502075	13.688055	16.201061	2.052814	-17.537039	76.760294	21.634072	53.100065	-12.433256	-9.946321	5.289626	-5.310544	173.122104	0.825755	25.967360	-8.460436	1.596860
9.694915	1.608274	-10.800360	88.234327	0.165684	0.974775	0.290618	-8.122903	1.662501	-24.992758	8.561333	0.149423	31.168449	15.093488	0.000000	-9.590720	-3.167253	2.977822	0.461413	0.008053	32.530946	-1.094638	0.000000	0.050815	0.423639	0.709802	0.094368	0.563440	0.754164	0.083483	1.030036	0.754164	0.058076	1.030036	0.621076	0.047186	0.863885	0.576714	0.029035	0.656217	0.532351	0.362964	4.792292	3.947704	0.000000	0.000000	15.524282	13.409905	15.391949	2.022153	-17.523035	76.869187	21.655733	54.313731	-13.059365	-9.628274	5.252011	-5.295020	173.848096	0.838449	26.507912	-10.064667	2.179171
9.711864	1.628364	-10.798874	88.123503	0.165781	0.974971	0.290828	-8.173933	1.678395	-24.847078	8.472109	0.147866	30.915468	15.007769	0.000000	-9.586522	-3.163638	2.951865	0.469173	0.008189	32.490803	-1.165748	0.000000	0.048533	0.415248	0.757962	0.090130	0.552279	0.805335	0.079734	1.009633	0.805335	0.055468	1.009633	0.663217	0.045067	0.846773	0.615844	0.027731	0.643218	0.568472	0.346663	4.697363	4.215558	0.000000	0.000000	15.536600	13.187616	14.709210	1.986748	-17.516403	77.009939	21.710549	56.147845	-13.937168	-9.165405	5.239232	-5.267610	174.546938	0.876553	27.016485	-11.574523	2.741074
9.728814	1.657229	-10.794602	87.993620	0.165885	0.975147	0.290998	-8.232021	1.714932	-24.463588	8.354034	0.145805	30.659992	14.677749	0.000000	-9.591451	-3.166624	2.728354	0.464347	0.008104	32.490855	-0.965843	0.000000	0.048145	0.409674	0.807021	0.089410	0.544866	0.857459	0.079097	0.996081	0.857459	0.055025	0.996081	0.706143	0.044707	0.835407	0.655704	0.027510	0.634585	0.605266	0.343894	4.634311	4.488407	0.000000	0.000000	15.571762	13.064831	14.252654	1.942015	-17.504750	77.124679	21.753691	58.384586	-14.934840	-8.731595	5.209307	-5.247238	174.866312	0.903949	27.497198	-12.874109	3.175702
9.745763	1.680038	-10.786878	87.879664	0.165966	0.975311	0.291134	-8.298667	1.736412	-24.228037	8.225424	0.143561	30.471540	14.555639	0.000000	-9.593677	-3.167406	2.385740	0.457775	0.007990	32.510161	-0.566524	0.000000	0.049180	0.405128	0.846718	0.091332	0.538821	0.899638	0.080797	0.985029	0.899638	0.056208	0.985029	0.740878	0.045668	0.826138	0.687958	0.028101	0.627544	0.635038	0.351286	4.582894	4.709190	0.000000	0.000000	15.654775	13.036700	14.026068	1.932961	-17.483096	77.325528	21.790082	60.808505	-15.949847	-8.249348	5.186259	-5.237182	175.165613	0.925984	27.695745	-13.786408	3.513350
9.762712	1.698680	-10.784680	87.746406	0.166064	0.975463	0.291261	-8.347479	1.763928	-23.749890	8.089634	0.141191	30.289900	14.161895	0.000000	-9.576833	-3.163337	1.850448	0.471693	0.008233	32.575141	0.062719	0.000000	0.051794	0.401674	0.888727	0.096186	0.534226	0.944272	0.085092	0.976630	0.944272	0.059195	0.976630	0.777636	0.048096	0.819093	0.722091	0.029595	0.622193	0.666545	0.369956	4.543815	4.942832	0.000000	0.000000	15.805043	13.072467	13.925028	1.832943	-17.493817	76.816289	21.928925	64.075810	-17.003481	-7.527120	5.202846	-5.231195	175.359952	0.993366	27.698077	-14.358723	3.747753
